<mxfile host="app.diagrams.net" agent="Mozilla/5.0 (Windows NT 10.0; Win64; x64) AppleWebKit/537.36 (KHTML, like Gecko) Chrome/132.0.0.0 Safari/537.36" version="26.0.11">
  <diagram name="Page-1" id="_XS6PTSnZSSMzlu8wedT">
    <mxGraphModel dx="2927" dy="1114" grid="1" gridSize="10" guides="1" tooltips="1" connect="1" arrows="1" fold="1" page="1" pageScale="1" pageWidth="827" pageHeight="1169" math="0" shadow="0">
      <root>
        <mxCell id="0" />
        <mxCell id="1" parent="0" />
        <mxCell id="4VHZCjV1OGoVik0gKCS--5" value="" style="edgeStyle=orthogonalEdgeStyle;rounded=0;orthogonalLoop=1;jettySize=auto;html=1;" parent="1" source="4VHZCjV1OGoVik0gKCS--1" edge="1">
          <mxGeometry relative="1" as="geometry">
            <mxPoint x="180" y="210" as="targetPoint" />
          </mxGeometry>
        </mxCell>
        <mxCell id="4VHZCjV1OGoVik0gKCS--94" value="" style="edgeStyle=orthogonalEdgeStyle;rounded=0;orthogonalLoop=1;jettySize=auto;html=1;" parent="1" source="4VHZCjV1OGoVik0gKCS--1" target="4VHZCjV1OGoVik0gKCS--93" edge="1">
          <mxGeometry relative="1" as="geometry" />
        </mxCell>
        <mxCell id="4VHZCjV1OGoVik0gKCS--1" value="&lt;h1&gt;&lt;b&gt;START&lt;/b&gt;&lt;/h1&gt;" style="ellipse;whiteSpace=wrap;html=1;" parent="1" vertex="1">
          <mxGeometry x="120" y="40" width="120" height="80" as="geometry" />
        </mxCell>
        <mxCell id="4VHZCjV1OGoVik0gKCS--7" value="" style="edgeStyle=orthogonalEdgeStyle;rounded=0;orthogonalLoop=1;jettySize=auto;html=1;entryX=0;entryY=0.5;entryDx=0;entryDy=0;" parent="1" edge="1">
          <mxGeometry relative="1" as="geometry">
            <mxPoint x="240" y="240" as="sourcePoint" />
            <mxPoint x="530" y="240" as="targetPoint" />
          </mxGeometry>
        </mxCell>
        <mxCell id="4VHZCjV1OGoVik0gKCS--31" value="" style="endArrow=none;html=1;rounded=0;" parent="1" edge="1">
          <mxGeometry width="50" height="50" relative="1" as="geometry">
            <mxPoint x="320" y="1140" as="sourcePoint" />
            <mxPoint x="320" y="240" as="targetPoint" />
          </mxGeometry>
        </mxCell>
        <mxCell id="4VHZCjV1OGoVik0gKCS--38" value="" style="edgeStyle=orthogonalEdgeStyle;rounded=0;orthogonalLoop=1;jettySize=auto;html=1;exitX=0.526;exitY=1;exitDx=0;exitDy=0;exitPerimeter=0;" parent="1" source="4VHZCjV1OGoVik0gKCS--107" edge="1">
          <mxGeometry relative="1" as="geometry">
            <mxPoint x="590" y="285" as="sourcePoint" />
            <mxPoint x="590" y="380" as="targetPoint" />
          </mxGeometry>
        </mxCell>
        <mxCell id="4VHZCjV1OGoVik0gKCS--98" value="" style="edgeStyle=orthogonalEdgeStyle;rounded=0;orthogonalLoop=1;jettySize=auto;html=1;exitX=1;exitY=0.5;exitDx=0;exitDy=0;" parent="1" source="4VHZCjV1OGoVik0gKCS--107" edge="1">
          <mxGeometry relative="1" as="geometry">
            <mxPoint x="650" y="240" as="sourcePoint" />
            <mxPoint x="706.9999999999995" y="239.9999999999999" as="targetPoint" />
          </mxGeometry>
        </mxCell>
        <mxCell id="4VHZCjV1OGoVik0gKCS--40" value="" style="edgeStyle=orthogonalEdgeStyle;rounded=0;orthogonalLoop=1;jettySize=auto;html=1;" parent="1" edge="1">
          <mxGeometry relative="1" as="geometry">
            <mxPoint x="590" y="380" as="sourcePoint" />
            <mxPoint x="320" y="380" as="targetPoint" />
          </mxGeometry>
        </mxCell>
        <mxCell id="4VHZCjV1OGoVik0gKCS--47" value="" style="edgeStyle=orthogonalEdgeStyle;rounded=0;orthogonalLoop=1;jettySize=auto;html=1;entryX=0.5;entryY=0;entryDx=0;entryDy=0;" parent="1" target="4VHZCjV1OGoVik0gKCS--48" edge="1">
          <mxGeometry relative="1" as="geometry">
            <mxPoint x="766.9999999999995" y="270.0000000000002" as="sourcePoint" />
            <mxPoint x="766.9999999999995" y="510" as="targetPoint" />
          </mxGeometry>
        </mxCell>
        <mxCell id="4VHZCjV1OGoVik0gKCS--99" value="" style="edgeStyle=orthogonalEdgeStyle;rounded=0;orthogonalLoop=1;jettySize=auto;html=1;exitX=1;exitY=0.5;exitDx=0;exitDy=0;" parent="1" source="4VHZCjV1OGoVik0gKCS--106" edge="1">
          <mxGeometry relative="1" as="geometry">
            <mxPoint x="826.9999999999995" y="240.00000000000023" as="sourcePoint" />
            <mxPoint x="940" y="240" as="targetPoint" />
          </mxGeometry>
        </mxCell>
        <mxCell id="4VHZCjV1OGoVik0gKCS--51" value="" style="edgeStyle=orthogonalEdgeStyle;rounded=0;orthogonalLoop=1;jettySize=auto;html=1;" parent="1" source="4VHZCjV1OGoVik0gKCS--48" target="4VHZCjV1OGoVik0gKCS--50" edge="1">
          <mxGeometry relative="1" as="geometry" />
        </mxCell>
        <mxCell id="4VHZCjV1OGoVik0gKCS--48" value="&lt;h3&gt;Input nomor kandidat yang ingin dipilih&lt;/h3&gt;" style="shape=parallelogram;perimeter=parallelogramPerimeter;whiteSpace=wrap;html=1;fixedSize=1;rounded=0;" parent="1" vertex="1">
          <mxGeometry x="707" y="360" width="120" height="60" as="geometry" />
        </mxCell>
        <mxCell id="4VHZCjV1OGoVik0gKCS--122" value="" style="edgeStyle=orthogonalEdgeStyle;rounded=0;orthogonalLoop=1;jettySize=auto;html=1;" parent="1" source="4VHZCjV1OGoVik0gKCS--50" target="4VHZCjV1OGoVik0gKCS--120" edge="1">
          <mxGeometry relative="1" as="geometry" />
        </mxCell>
        <mxCell id="4VHZCjV1OGoVik0gKCS--127" value="" style="edgeStyle=orthogonalEdgeStyle;rounded=0;orthogonalLoop=1;jettySize=auto;html=1;" parent="1" source="4VHZCjV1OGoVik0gKCS--50" target="4VHZCjV1OGoVik0gKCS--126" edge="1">
          <mxGeometry relative="1" as="geometry" />
        </mxCell>
        <mxCell id="4VHZCjV1OGoVik0gKCS--50" value="&lt;h3&gt;Apakah nomor valid?&lt;/h3&gt;" style="rhombus;whiteSpace=wrap;html=1;rounded=0;" parent="1" vertex="1">
          <mxGeometry x="695.5" y="500" width="143" height="100" as="geometry" />
        </mxCell>
        <mxCell id="4VHZCjV1OGoVik0gKCS--63" value="" style="edgeStyle=orthogonalEdgeStyle;rounded=0;orthogonalLoop=1;jettySize=auto;html=1;" parent="1" source="4VHZCjV1OGoVik0gKCS--54" edge="1">
          <mxGeometry relative="1" as="geometry">
            <mxPoint x="360" y="640" as="targetPoint" />
          </mxGeometry>
        </mxCell>
        <mxCell id="4VHZCjV1OGoVik0gKCS--54" value="&lt;h3&gt;Tidak Valid.&lt;/h3&gt;&lt;h3&gt;&amp;nbsp;(Tampilkan pesan error)&lt;/h3&gt;" style="shape=parallelogram;perimeter=parallelogramPerimeter;whiteSpace=wrap;html=1;fixedSize=1;rounded=0;" parent="1" vertex="1">
          <mxGeometry x="390" y="525" width="214" height="50" as="geometry" />
        </mxCell>
        <mxCell id="4VHZCjV1OGoVik0gKCS--65" value="" style="edgeStyle=orthogonalEdgeStyle;rounded=0;orthogonalLoop=1;jettySize=auto;html=1;" parent="1" source="4VHZCjV1OGoVik0gKCS--56" edge="1">
          <mxGeometry relative="1" as="geometry">
            <mxPoint x="360" y="650" as="targetPoint" />
          </mxGeometry>
        </mxCell>
        <mxCell id="4VHZCjV1OGoVik0gKCS--56" value="&lt;h3&gt;Valid.&lt;/h3&gt;&lt;h3&gt;(Tambahkan suara ke kandidat)&lt;/h3&gt;" style="shape=parallelogram;perimeter=parallelogramPerimeter;whiteSpace=wrap;html=1;fixedSize=1;rounded=0;" parent="1" vertex="1">
          <mxGeometry x="680.5" y="690" width="173" height="80" as="geometry" />
        </mxCell>
        <mxCell id="4VHZCjV1OGoVik0gKCS--66" value="" style="endArrow=classic;html=1;rounded=0;" parent="1" edge="1">
          <mxGeometry width="50" height="50" relative="1" as="geometry">
            <mxPoint x="360" y="644.6" as="sourcePoint" />
            <mxPoint x="320" y="644.6" as="targetPoint" />
          </mxGeometry>
        </mxCell>
        <mxCell id="4VHZCjV1OGoVik0gKCS--72" value="" style="edgeStyle=orthogonalEdgeStyle;rounded=0;orthogonalLoop=1;jettySize=auto;html=1;" parent="1" target="4VHZCjV1OGoVik0gKCS--74" edge="1">
          <mxGeometry relative="1" as="geometry">
            <mxPoint x="1000" y="270.0000000000001" as="sourcePoint" />
            <mxPoint x="1000" y="510" as="targetPoint" />
          </mxGeometry>
        </mxCell>
        <mxCell id="4VHZCjV1OGoVik0gKCS--100" value="" style="edgeStyle=orthogonalEdgeStyle;rounded=0;orthogonalLoop=1;jettySize=auto;html=1;exitX=0.902;exitY=0.501;exitDx=0;exitDy=0;exitPerimeter=0;" parent="1" source="4VHZCjV1OGoVik0gKCS--108" edge="1">
          <mxGeometry relative="1" as="geometry">
            <mxPoint x="1060" y="240.0000000000001" as="sourcePoint" />
            <mxPoint x="1169.9999999999995" y="240.0000000000001" as="targetPoint" />
          </mxGeometry>
        </mxCell>
        <mxCell id="4VHZCjV1OGoVik0gKCS--77" value="" style="edgeStyle=orthogonalEdgeStyle;rounded=0;orthogonalLoop=1;jettySize=auto;html=1;" parent="1" source="4VHZCjV1OGoVik0gKCS--74" target="4VHZCjV1OGoVik0gKCS--76" edge="1">
          <mxGeometry relative="1" as="geometry" />
        </mxCell>
        <mxCell id="4VHZCjV1OGoVik0gKCS--74" value="&lt;h3&gt;Input nomor kandidat yang dicari&lt;/h3&gt;" style="shape=parallelogram;perimeter=parallelogramPerimeter;whiteSpace=wrap;html=1;fixedSize=1;rounded=0;" parent="1" vertex="1">
          <mxGeometry x="910" y="360" width="180" height="60" as="geometry" />
        </mxCell>
        <mxCell id="4VHZCjV1OGoVik0gKCS--79" value="" style="edgeStyle=orthogonalEdgeStyle;rounded=0;orthogonalLoop=1;jettySize=auto;html=1;" parent="1" source="4VHZCjV1OGoVik0gKCS--131" target="4VHZCjV1OGoVik0gKCS--78" edge="1">
          <mxGeometry relative="1" as="geometry" />
        </mxCell>
        <mxCell id="4VHZCjV1OGoVik0gKCS--83" value="" style="edgeStyle=orthogonalEdgeStyle;rounded=0;orthogonalLoop=1;jettySize=auto;html=1;" parent="1" source="4VHZCjV1OGoVik0gKCS--129" target="4VHZCjV1OGoVik0gKCS--82" edge="1">
          <mxGeometry relative="1" as="geometry" />
        </mxCell>
        <mxCell id="4VHZCjV1OGoVik0gKCS--76" value="&lt;h3&gt;Apakah nomor valid?&lt;/h3&gt;" style="rhombus;whiteSpace=wrap;html=1;rounded=0;" parent="1" vertex="1">
          <mxGeometry x="930" y="800" width="140" height="111" as="geometry" />
        </mxCell>
        <mxCell id="4VHZCjV1OGoVik0gKCS--87" value="" style="edgeStyle=orthogonalEdgeStyle;rounded=0;orthogonalLoop=1;jettySize=auto;html=1;" parent="1" source="4VHZCjV1OGoVik0gKCS--78" edge="1">
          <mxGeometry relative="1" as="geometry">
            <mxPoint x="360" y="960" as="targetPoint" />
          </mxGeometry>
        </mxCell>
        <mxCell id="4VHZCjV1OGoVik0gKCS--78" value="&lt;h3&gt;Valid&lt;/h3&gt;&lt;h3&gt;(Tampilkan informasi kandidat)&lt;/h3&gt;" style="shape=parallelogram;perimeter=parallelogramPerimeter;whiteSpace=wrap;html=1;fixedSize=1;rounded=0;" parent="1" vertex="1">
          <mxGeometry x="905" y="1010" width="190" height="73.5" as="geometry" />
        </mxCell>
        <mxCell id="4VHZCjV1OGoVik0gKCS--85" value="" style="edgeStyle=orthogonalEdgeStyle;rounded=0;orthogonalLoop=1;jettySize=auto;html=1;" parent="1" source="4VHZCjV1OGoVik0gKCS--82" edge="1">
          <mxGeometry relative="1" as="geometry">
            <mxPoint x="360" y="960" as="targetPoint" />
          </mxGeometry>
        </mxCell>
        <mxCell id="4VHZCjV1OGoVik0gKCS--82" value="&lt;h3&gt;Tidak Valid.&lt;/h3&gt;&lt;h3&gt;&amp;nbsp;(Tampilkan pesan error)&lt;/h3&gt;" style="shape=parallelogram;perimeter=parallelogramPerimeter;whiteSpace=wrap;html=1;fixedSize=1;rounded=0;" parent="1" vertex="1">
          <mxGeometry x="628.5" y="825.5" width="210" height="60" as="geometry" />
        </mxCell>
        <mxCell id="4VHZCjV1OGoVik0gKCS--88" value="" style="endArrow=classic;html=1;rounded=0;" parent="1" edge="1">
          <mxGeometry width="50" height="50" relative="1" as="geometry">
            <mxPoint x="360" y="960" as="sourcePoint" />
            <mxPoint x="320" y="960" as="targetPoint" />
          </mxGeometry>
        </mxCell>
        <mxCell id="4VHZCjV1OGoVik0gKCS--97" value="" style="edgeStyle=orthogonalEdgeStyle;rounded=0;orthogonalLoop=1;jettySize=auto;html=1;" parent="1" source="4VHZCjV1OGoVik0gKCS--93" edge="1">
          <mxGeometry relative="1" as="geometry">
            <mxPoint x="-50" y="1210" as="targetPoint" />
          </mxGeometry>
        </mxCell>
        <mxCell id="4VHZCjV1OGoVik0gKCS--93" value="&lt;h2 style=&quot;line-height: 30%;&quot;&gt;&lt;font style=&quot;font-size: 15px; line-height: 30%;&quot;&gt;Tampilkan Menu Utama&amp;nbsp;&lt;/font&gt;&lt;/h2&gt;&lt;h2 style=&quot;line-height: 30%;&quot;&gt;&lt;font style=&quot;font-size: 15px; line-height: 30%;&quot;&gt;dan Pilih Menu&lt;/font&gt;&lt;/h2&gt;" style="rhombus;whiteSpace=wrap;html=1;" parent="1" vertex="1">
          <mxGeometry x="62.5" y="175" width="235" height="130" as="geometry" />
        </mxCell>
        <mxCell id="4VHZCjV1OGoVik0gKCS--101" value="&lt;h2&gt;YA&lt;/h2&gt;" style="text;html=1;align=center;verticalAlign=middle;whiteSpace=wrap;rounded=0;" parent="1" vertex="1">
          <mxGeometry x="354" y="210" width="60" height="30" as="geometry" />
        </mxCell>
        <mxCell id="4VHZCjV1OGoVik0gKCS--102" value="&lt;h2&gt;TIDAK&lt;/h2&gt;" style="text;html=1;align=center;verticalAlign=middle;whiteSpace=wrap;rounded=0;" parent="1" vertex="1">
          <mxGeometry x="-30" y="210" width="60" height="30" as="geometry" />
        </mxCell>
        <mxCell id="4VHZCjV1OGoVik0gKCS--106" value="&lt;h3&gt;Jika 2&lt;/h3&gt;&lt;h3&gt;&lt;span style=&quot;background-color: initial;&quot;&gt;&lt;span style=&quot;font-size: 12px;&quot;&gt;(&lt;/span&gt;&lt;/span&gt;&lt;span style=&quot;background-color: initial; font-size: 12px;&quot;&gt;Tampilkan daftar kandidat&lt;/span&gt;&lt;span style=&quot;font-size: 12px; background-color: initial;&quot;&gt;)&lt;/span&gt;&lt;/h3&gt;" style="shape=parallelogram;perimeter=parallelogramPerimeter;whiteSpace=wrap;html=1;fixedSize=1;" parent="1" vertex="1">
          <mxGeometry x="700.5" y="200" width="133" height="80" as="geometry" />
        </mxCell>
        <mxCell id="4VHZCjV1OGoVik0gKCS--107" value="&lt;h3&gt;Jika 1&lt;/h3&gt;&lt;h3&gt;&lt;span style=&quot;background-color: initial;&quot;&gt;&lt;span style=&quot;font-size: 12px;&quot;&gt;(&lt;/span&gt;&lt;/span&gt;&lt;span style=&quot;background-color: initial; font-size: 12px;&quot;&gt;Tampilkan daftar kandidat&lt;/span&gt;&lt;span style=&quot;font-size: 12px; background-color: initial;&quot;&gt;)&lt;/span&gt;&lt;/h3&gt;" style="shape=parallelogram;perimeter=parallelogramPerimeter;whiteSpace=wrap;html=1;fixedSize=1;" parent="1" vertex="1">
          <mxGeometry x="520" y="200" width="133" height="80" as="geometry" />
        </mxCell>
        <mxCell id="4VHZCjV1OGoVik0gKCS--108" value="&lt;h3&gt;Jika 3&lt;/h3&gt;&lt;h3&gt;&lt;span style=&quot;background-color: initial;&quot;&gt;&lt;span style=&quot;font-size: 12px;&quot;&gt;(&lt;/span&gt;&lt;/span&gt;&lt;span style=&quot;background-color: initial; font-size: 12px;&quot;&gt;Tampilkan daftar kandidat&lt;/span&gt;&lt;span style=&quot;font-size: 12px; background-color: initial;&quot;&gt;)&lt;/span&gt;&lt;/h3&gt;" style="shape=parallelogram;perimeter=parallelogramPerimeter;whiteSpace=wrap;html=1;fixedSize=1;" parent="1" vertex="1">
          <mxGeometry x="930" y="200" width="133" height="80" as="geometry" />
        </mxCell>
        <mxCell id="4VHZCjV1OGoVik0gKCS--135" value="" style="edgeStyle=orthogonalEdgeStyle;rounded=0;orthogonalLoop=1;jettySize=auto;html=1;" parent="1" source="4VHZCjV1OGoVik0gKCS--109" target="4VHZCjV1OGoVik0gKCS--134" edge="1">
          <mxGeometry relative="1" as="geometry" />
        </mxCell>
        <mxCell id="4VHZCjV1OGoVik0gKCS--109" value="&lt;h3&gt;Jika 4&lt;/h3&gt;&lt;h3&gt;&lt;span style=&quot;background-color: initial;&quot;&gt;&lt;span style=&quot;font-size: 12px;&quot;&gt;(&lt;/span&gt;&lt;/span&gt;&lt;span style=&quot;background-color: initial;&quot;&gt;&lt;span style=&quot;font-size: 12px;&quot;&gt;Urutkan Kandidat Berdasarkan Suara)&lt;/span&gt;&lt;/span&gt;&lt;/h3&gt;" style="shape=parallelogram;perimeter=parallelogramPerimeter;whiteSpace=wrap;html=1;fixedSize=1;" parent="1" vertex="1">
          <mxGeometry x="1160" y="200" width="160" height="80" as="geometry" />
        </mxCell>
        <mxCell id="4VHZCjV1OGoVik0gKCS--113" value="" style="edgeStyle=orthogonalEdgeStyle;rounded=0;orthogonalLoop=1;jettySize=auto;html=1;" parent="1" source="4VHZCjV1OGoVik0gKCS--110" edge="1">
          <mxGeometry relative="1" as="geometry">
            <mxPoint x="1240" y="1140" as="targetPoint" />
          </mxGeometry>
        </mxCell>
        <mxCell id="4VHZCjV1OGoVik0gKCS--110" value="&lt;h3&gt;Tampilkan daftar kandidat setelah diurutkan&lt;/h3&gt;" style="shape=parallelogram;perimeter=parallelogramPerimeter;whiteSpace=wrap;html=1;fixedSize=1;" parent="1" vertex="1">
          <mxGeometry x="1165" y="525" width="150" height="60" as="geometry" />
        </mxCell>
        <mxCell id="4VHZCjV1OGoVik0gKCS--114" value="" style="edgeStyle=orthogonalEdgeStyle;rounded=0;orthogonalLoop=1;jettySize=auto;html=1;" parent="1" edge="1">
          <mxGeometry relative="1" as="geometry">
            <mxPoint x="1241" y="1140" as="sourcePoint" />
            <mxPoint x="320" y="1141" as="targetPoint" />
          </mxGeometry>
        </mxCell>
        <mxCell id="4VHZCjV1OGoVik0gKCS--123" value="" style="edgeStyle=orthogonalEdgeStyle;rounded=0;orthogonalLoop=1;jettySize=auto;html=1;" parent="1" source="4VHZCjV1OGoVik0gKCS--120" target="4VHZCjV1OGoVik0gKCS--54" edge="1">
          <mxGeometry relative="1" as="geometry" />
        </mxCell>
        <mxCell id="4VHZCjV1OGoVik0gKCS--120" value="&lt;h2&gt;TIDAK&lt;/h2&gt;" style="text;html=1;align=center;verticalAlign=middle;whiteSpace=wrap;rounded=0;" parent="1" vertex="1">
          <mxGeometry x="620.5" y="535" width="60" height="30" as="geometry" />
        </mxCell>
        <mxCell id="4VHZCjV1OGoVik0gKCS--128" value="" style="edgeStyle=orthogonalEdgeStyle;rounded=0;orthogonalLoop=1;jettySize=auto;html=1;" parent="1" source="4VHZCjV1OGoVik0gKCS--126" target="4VHZCjV1OGoVik0gKCS--56" edge="1">
          <mxGeometry relative="1" as="geometry" />
        </mxCell>
        <mxCell id="4VHZCjV1OGoVik0gKCS--126" value="&lt;h2&gt;YA&lt;/h2&gt;" style="text;html=1;align=center;verticalAlign=middle;whiteSpace=wrap;rounded=0;" parent="1" vertex="1">
          <mxGeometry x="737" y="630" width="60" height="30" as="geometry" />
        </mxCell>
        <mxCell id="4VHZCjV1OGoVik0gKCS--130" value="" style="edgeStyle=orthogonalEdgeStyle;rounded=0;orthogonalLoop=1;jettySize=auto;html=1;" parent="1" source="4VHZCjV1OGoVik0gKCS--76" target="4VHZCjV1OGoVik0gKCS--129" edge="1">
          <mxGeometry relative="1" as="geometry">
            <mxPoint x="930" y="1136" as="sourcePoint" />
            <mxPoint x="830" y="1136" as="targetPoint" />
          </mxGeometry>
        </mxCell>
        <mxCell id="4VHZCjV1OGoVik0gKCS--129" value="&lt;h2&gt;TIDAK&lt;/h2&gt;" style="text;html=1;align=center;verticalAlign=middle;whiteSpace=wrap;rounded=0;" parent="1" vertex="1">
          <mxGeometry x="850" y="840.5" width="60" height="30" as="geometry" />
        </mxCell>
        <mxCell id="4VHZCjV1OGoVik0gKCS--132" value="" style="edgeStyle=orthogonalEdgeStyle;rounded=0;orthogonalLoop=1;jettySize=auto;html=1;" parent="1" source="4VHZCjV1OGoVik0gKCS--76" target="4VHZCjV1OGoVik0gKCS--131" edge="1">
          <mxGeometry relative="1" as="geometry">
            <mxPoint x="1000" y="1191" as="sourcePoint" />
            <mxPoint x="1000" y="1297" as="targetPoint" />
          </mxGeometry>
        </mxCell>
        <mxCell id="4VHZCjV1OGoVik0gKCS--131" value="&lt;h2&gt;YA&lt;/h2&gt;" style="text;html=1;align=center;verticalAlign=middle;whiteSpace=wrap;rounded=0;" parent="1" vertex="1">
          <mxGeometry x="970" y="950" width="60" height="30" as="geometry" />
        </mxCell>
        <mxCell id="4VHZCjV1OGoVik0gKCS--137" value="" style="edgeStyle=orthogonalEdgeStyle;rounded=0;orthogonalLoop=1;jettySize=auto;html=1;" parent="1" source="4VHZCjV1OGoVik0gKCS--134" target="4VHZCjV1OGoVik0gKCS--136" edge="1">
          <mxGeometry relative="1" as="geometry" />
        </mxCell>
        <mxCell id="4VHZCjV1OGoVik0gKCS--134" value="&lt;h3&gt;Jika 4&lt;/h3&gt;&lt;h3&gt;&lt;span style=&quot;background-color: initial;&quot;&gt;&lt;span style=&quot;font-size: 12px;&quot;&gt;(&lt;/span&gt;&lt;/span&gt;&lt;span style=&quot;background-color: initial;&quot;&gt;&lt;span style=&quot;font-size: 12px;&quot;&gt;Keluar)&lt;/span&gt;&lt;/span&gt;&lt;/h3&gt;" style="shape=parallelogram;perimeter=parallelogramPerimeter;whiteSpace=wrap;html=1;fixedSize=1;" parent="1" vertex="1">
          <mxGeometry x="1400" y="200" width="160" height="80" as="geometry" />
        </mxCell>
        <mxCell id="4VHZCjV1OGoVik0gKCS--136" value="&lt;h1&gt;END&lt;/h1&gt;" style="ellipse;whiteSpace=wrap;html=1;" parent="1" vertex="1">
          <mxGeometry x="1630" y="200" width="150" height="80" as="geometry" />
        </mxCell>
        <mxCell id="4VHZCjV1OGoVik0gKCS--138" value="" style="endArrow=classic;html=1;rounded=0;" parent="1" edge="1">
          <mxGeometry width="50" height="50" relative="1" as="geometry">
            <mxPoint x="-50" y="1210" as="sourcePoint" />
            <mxPoint x="1480" y="1210" as="targetPoint" />
          </mxGeometry>
        </mxCell>
        <mxCell id="4VHZCjV1OGoVik0gKCS--142" value="" style="endArrow=classic;html=1;rounded=0;" parent="1" edge="1">
          <mxGeometry width="50" height="50" relative="1" as="geometry">
            <mxPoint x="1480" y="1210" as="sourcePoint" />
            <mxPoint x="1478.89" y="290" as="targetPoint" />
          </mxGeometry>
        </mxCell>
        <mxCell id="sK46HlUWI0SOj5FMa-pF-1" value="" style="edgeStyle=orthogonalEdgeStyle;rounded=0;orthogonalLoop=1;jettySize=auto;html=1;" edge="1" parent="1" source="4VHZCjV1OGoVik0gKCS--109" target="4VHZCjV1OGoVik0gKCS--116">
          <mxGeometry relative="1" as="geometry">
            <mxPoint x="1240" y="440" as="targetPoint" />
            <mxPoint x="1240" y="280" as="sourcePoint" />
          </mxGeometry>
        </mxCell>
        <mxCell id="sK46HlUWI0SOj5FMa-pF-9" value="" style="edgeStyle=orthogonalEdgeStyle;rounded=0;orthogonalLoop=1;jettySize=auto;html=1;" edge="1" parent="1" source="4VHZCjV1OGoVik0gKCS--116" target="4VHZCjV1OGoVik0gKCS--110">
          <mxGeometry relative="1" as="geometry" />
        </mxCell>
        <mxCell id="4VHZCjV1OGoVik0gKCS--116" value="&lt;h3&gt;Mengurutkan Hasil Berdasarkan Data Suara&lt;/h3&gt;" style="rounded=0;whiteSpace=wrap;html=1;" parent="1" vertex="1">
          <mxGeometry x="1180" y="360" width="120" height="70" as="geometry" />
        </mxCell>
      </root>
    </mxGraphModel>
  </diagram>
</mxfile>
